<?xml version="1.0" encoding="UTF-8"?>
<svg version="1.1" xmlns="http://www.w3.org/2000/svg" width="2000" height="342">
<path d="M0 0 C3.75214252 1.29285567 7.53968987 2.34848247 11.37005615 3.3815918 C12.1213873 3.58459617 12.87271845 3.78760054 13.64681721 3.99675655 C15.2304405 4.42432022 16.81413854 4.85160709 18.39790535 5.27863884 C22.61064117 6.42386723 26.81220511 7.6085758 31.01434326 8.79199219 C32.79498651 9.29275816 34.57563643 9.79350041 36.35629272 10.29421997 C37.25604954 10.54734577 38.15580635 10.80047157 39.08282852 11.06126785 C43.7698856 12.3788174 48.45828517 13.6915699 53.14666748 15.00439453 C54.10184297 15.27187343 55.05701845 15.53935232 56.04113865 15.81493664 C57.99468088 16.36198575 59.94822711 16.90902054 61.90177727 17.45604134 C64.88403333 18.29130771 67.86614175 19.12709944 70.84822083 19.96299744 C92.23755593 25.95734415 113.64128224 31.89972061 135.0459938 37.83888245 C138.87420113 38.90110125 142.70237239 39.96344989 146.53050709 41.0259304 C148.37362807 41.5374347 150.21678188 42.04882073 152.0599699 42.56008339 C156.42616202 43.77141588 160.79172464 44.98491544 165.1558075 46.2038269 C172.45542656 48.24095668 179.75686622 50.2580308 187.08880615 52.17602539 C188.26069992 52.48773178 189.43259369 52.79943817 190.63999939 53.12059021 C192.73126587 53.675047 194.8260139 54.21664018 196.92494202 54.74134827 C202.24535948 56.1652464 205.7276911 57.48890304 209.15374756 62.08666992 C209.6897831 66.52810726 209.6540641 68.33619511 207.15374756 72.08666992 C206.86567042 74.08427081 206.86567042 74.08427081 206.92669678 76.28271484 C206.92684784 77.12335983 206.9269989 77.96400482 206.92715454 78.8301239 C206.93747711 79.73333878 206.94779968 80.63655365 206.95843506 81.56713867 C206.96126495 82.49512772 206.96409485 83.42311676 206.9670105 84.37922668 C206.97820919 87.34433871 207.00331321 90.30914913 207.02874756 93.27416992 C207.03877776 95.28393119 207.04790354 97.29369718 207.05609131 99.3034668 C207.07814752 104.23131745 207.11267527 109.15894254 207.15374756 114.08666992 C208.8266687 115.01805786 208.8266687 115.01805786 210.53338623 115.96826172 C213.4741842 117.60553182 215.46820538 119.1356806 217.46624756 121.89916992 C218.17200928 122.83696289 218.17200928 122.83696289 218.89202881 123.79370117 C222.38266674 130.13736824 222.42814559 136.32894047 222.34906006 143.39526367 C222.3470459 144.25317505 222.34503174 145.11108643 222.34295654 145.99499512 C222.33256544 149.17144183 222.30464334 152.34781177 222.27874756 155.52416992 C222.23749756 162.63979492 222.19624756 169.75541992 222.15374756 177.08666992 C205.98374756 177.08666992 189.81374756 177.08666992 173.15374756 177.08666992 C173.06093506 165.94916992 173.06093506 165.94916992 172.96624756 154.58666992 C172.93893555 152.25797852 172.91162354 149.92928711 172.88348389 147.5300293 C172.87471378 145.6634981 172.86707109 143.79696112 172.86077881 141.93041992 C172.83775696 140.50197754 172.83775696 140.50197754 172.81427002 139.04467773 C172.81160827 132.19511126 173.6572706 126.55634977 177.76702881 120.84448242 C178.327771 120.3056543 178.88851318 119.76682617 179.46624756 119.21166992 C180.01925537 118.65737305 180.57226318 118.10307617 181.14202881 117.53198242 C183.15374756 116.08666992 183.15374756 116.08666992 189.15374756 114.08666992 C189.15374756 102.20666992 189.15374756 90.32666992 189.15374756 78.08666992 C181.84282959 80.14401367 181.84282959 80.14401367 174.38421631 82.24291992 C171.2990488 83.10923416 168.21382044 83.97531845 165.12835693 84.84057617 C160.2292038 86.21447119 155.33030105 87.58921878 150.43280029 88.96899414 C146.48506753 90.08113374 142.53629061 91.18948969 138.58675575 92.29521179 C137.07887139 92.7180832 135.57137061 93.14232484 134.06426048 93.56794739 C131.95600474 94.16308869 129.84644728 94.75337748 127.73651123 95.3425293 C126.53516037 95.68006226 125.33380951 96.01759521 124.09605408 96.36535645 C121.15374756 97.08666992 121.15374756 97.08666992 118.15374756 97.08666992 C118.16374031 98.98681099 118.16374031 98.98681099 118.17393494 100.92533875 C118.23472824 112.85854798 118.27971172 124.79172583 118.30918407 136.72505474 C118.32484542 142.8602258 118.34609256 148.99527193 118.38006592 155.13037109 C118.41264218 161.05016624 118.43059704 166.96984115 118.43837929 172.88971901 C118.44392587 175.1491771 118.45475687 177.40862855 118.47093773 179.66803551 C118.49268859 182.83075602 118.49571541 185.99297855 118.49432373 189.15576172 C118.51050247 190.55946014 118.51050247 190.55946014 118.52700806 191.99151611 C118.50395949 196.8265651 118.36939702 200.19307866 115.15374756 204.08666992 C112.62207991 205.35250375 110.5377361 205.41526186 107.71234131 205.66479492 C67.95976353 209.40224102 25.06904566 218.27296534 -7.34625244 243.21166992 C-11.24383093 245.97107609 -14.21964865 247.32524304 -19.04937744 246.95776367 C-24.18810612 245.35729371 -28.33587694 242.03139693 -32.67828369 238.94604492 C-63.08520266 217.58802798 -103.64931656 207.90146287 -140.24957275 205.94482422 C-146.23213867 205.52913698 -146.23213867 205.52913698 -149.36187744 203.27416992 C-151.65381958 199.89657099 -151.97155777 196.82971107 -151.96650696 192.80926514 C-151.96856895 191.53889404 -151.96856895 191.53889404 -151.97067261 190.24285889 C-151.96527969 188.86181976 -151.96527969 188.86181976 -151.95977783 187.45288086 C-151.95992386 186.4769397 -151.96006989 185.50099854 -151.96022034 184.4954834 C-151.95952384 181.27064794 -151.9517437 178.04587029 -151.94390869 174.82104492 C-151.94204358 172.58473746 -151.94062012 170.3484296 -151.93962097 168.11212158 C-151.93580315 162.22667309 -151.9259791 156.34124929 -151.91491699 150.45581055 C-151.9046871 144.44995457 -151.90011997 138.4440946 -151.89508057 132.43823242 C-151.8843562 120.65436741 -151.86728856 108.87052072 -151.84625244 97.08666992 C-152.78928113 96.90650109 -152.78928113 96.90650109 -153.75136089 96.72269249 C-159.18762474 95.66323396 -164.53836746 94.46001533 -169.87872314 92.99536133 C-170.61342331 92.79666946 -171.34812347 92.5979776 -172.10508728 92.39326477 C-174.49515531 91.74550466 -176.88372294 91.09244002 -179.27203369 90.43823242 C-180.09509695 90.21337536 -180.91816021 89.9885183 -181.76616478 89.75684738 C-186.11077056 88.56964909 -190.4541992 87.37825291 -194.79669189 86.18334961 C-199.27028388 84.95327765 -203.74773466 83.73790762 -208.22620869 82.52575111 C-211.684886 81.58675325 -215.14052005 80.63692016 -218.59541893 79.68412399 C-220.24527484 79.23115266 -221.89625411 78.78225184 -223.54836464 78.33757401 C-225.85582229 77.71542554 -228.15854024 77.07800593 -230.46075439 76.43676758 C-231.13772369 76.25792526 -231.81469299 76.07908295 -232.51217651 75.89482117 C-236.7337154 74.69692826 -239.67324176 73.12524974 -242.84625244 70.08666992 C-243.51031494 67.86791992 -243.51031494 67.86791992 -243.47125244 65.58666992 C-243.48414307 64.83385742 -243.49703369 64.08104492 -243.51031494 63.30541992 C-242.51488745 59.97952101 -240.69440586 59.02936454 -237.84625244 57.08666992 C-235.14595604 56.1045189 -232.56687145 55.28586809 -229.80255127 54.55078125 C-228.99843307 54.32649256 -228.19431488 54.10220387 -227.36582947 53.87111855 C-224.68135234 53.12545761 -221.99247043 52.39717759 -219.30328369 51.66870117 C-217.3810045 51.13837023 -215.45902946 50.60693577 -213.53733826 50.07447815 C-208.33311315 48.63562853 -203.12495832 47.21150906 -197.91601562 45.78984833 C-192.45867252 44.29757172 -187.00513635 42.79151996 -181.55133057 41.28637695 C-173.64682962 39.10605604 -165.74122843 36.92981066 -157.83418083 34.75874329 C-143.73041295 30.88586771 -129.63551177 26.98182713 -115.54547119 23.05932617 C-114.53632975 22.7784572 -113.5271883 22.49758823 -112.48746681 22.20820808 C-107.51992799 20.82559294 -102.55249026 19.44261507 -97.58511353 18.05941772 C-92.90193349 16.75545893 -88.2186213 15.45197711 -83.53499317 14.14962864 C-81.74449256 13.65169727 -79.95408047 13.15344747 -78.16376019 12.65486813 C-73.87633168 11.46179962 -69.58718535 10.27589163 -65.2933197 9.10618591 C-57.38053446 6.94487621 -49.52081868 4.69763387 -41.70562744 2.20483398 C-26.81739864 -2.48128001 -15.1275985 -5.53689001 0 0 Z M-26.99371338 15.89306641 C-27.69064584 16.08749895 -28.3875783 16.2819315 -29.10562992 16.48225594 C-31.43275179 17.13344553 -33.75659316 17.79564679 -36.08062744 18.45776367 C-37.75504408 18.92852212 -39.42966619 19.39855025 -41.10447693 19.86790466 C-44.71163145 20.88030961 -48.31739612 21.89747538 -51.92214966 22.918396 C-57.6350404 24.53627603 -63.35080117 26.14383167 -69.06719971 27.74926758 C-75.06929561 29.435292 -81.07127763 31.12170814 -87.07234192 32.81140137 C-108.96425736 38.97403692 -130.87875185 45.0549246 -152.79438782 51.13255692 C-160.48742619 53.26625386 -168.17996526 55.40175006 -175.87246132 57.5374012 C-178.4242094 58.24570931 -180.97606484 58.95362946 -183.52793884 59.66148376 C-185.07016283 60.08949753 -186.61238407 60.51752123 -188.15460205 60.94555664 C-188.83608181 61.13448203 -189.51756157 61.32340742 -190.21969223 61.51805782 C-194.43426525 62.68822175 -198.64188334 63.88050421 -202.84625244 65.08666992 C-199.0608072 67.24483853 -194.97626679 68.28273002 -190.80499268 69.42724609 C-189.58251249 69.76794947 -189.58251249 69.76794947 -188.33533573 70.11553574 C-185.60957193 70.87413265 -182.882218 71.62684535 -180.15484619 72.37963867 C-178.21085667 72.9195221 -176.26697061 73.45977819 -174.32318115 74.00038147 C-169.06997009 75.46019783 -163.81534324 76.91484986 -158.56028366 78.36799622 C-151.98654978 80.18606062 -145.41373036 82.00742873 -138.84075832 83.82824516 C-137.18826879 84.28600932 -137.18826879 84.28600932 -135.50239563 84.75302124 C-134.39658709 85.05935863 -133.29077854 85.36569603 -132.15146065 85.68131638 C-128.76412471 86.61944963 -125.37659387 87.55687695 -121.98905945 88.49429321 C-108.04089789 92.35624237 -94.10467015 96.25849058 -80.17703056 100.19376564 C-74.43897015 101.81341503 -68.69866657 103.42509634 -62.95826817 105.03643703 C-58.43373338 106.30725387 -53.9108866 107.58353952 -49.39138794 108.87216187 C-45.1695892 110.07583456 -40.94412762 111.26563548 -36.71546936 112.4449749 C-35.17896604 112.87624266 -33.64390364 113.31268452 -32.11048889 113.75480843 C-30.02205457 114.35627872 -27.92920563 114.93891363 -25.83428955 115.51733398 C-24.67014023 115.84670959 -23.50599091 116.17608521 -22.30656433 116.51544189 C-15.22796482 117.68397657 -8.66203315 115.65552537 -1.89068604 113.73266602 C-1.02921243 113.49300456 -0.16773882 113.25334311 0.71984005 113.00641918 C3.56653165 112.2130327 6.41088825 111.41158977 9.25531006 110.61010742 C11.27379899 110.04587322 13.2924331 109.48215816 15.311203 108.91893005 C20.6932916 107.41591134 26.07344684 105.90608024 31.45326614 104.39496231 C36.98564249 102.84230749 42.51981655 101.29609009 48.05389404 99.74951172 C55.71311123 97.60851717 63.37184002 95.46579467 71.02982998 93.32041454 C85.9498778 89.14066807 100.87655649 84.98519875 115.80749512 80.84454346 C120.1774929 79.63258092 124.54709816 78.41920677 128.91670227 77.20582581 C132.66229076 76.165771 136.40800964 75.12618644 140.15374756 74.08666992 C140.15374756 73.75666992 140.15374756 73.42666992 140.15374756 73.08666992 C139.35768443 73.08243798 138.5616213 73.07820604 137.74143505 73.07384586 C118.38782707 72.97062353 99.03425635 72.86199845 79.6807127 72.74733067 C70.32155805 72.69200945 60.96239959 72.63852925 51.60321045 72.58935547 C43.44749029 72.54650015 35.29179808 72.50021873 27.13612109 72.44979137 C22.81619159 72.42320131 18.49626759 72.39834848 14.17630577 72.3775959 C10.11260176 72.35802029 6.04895088 72.33387369 1.98529434 72.30617905 C0.49172365 72.29681352 -1.0018587 72.28913644 -2.49544716 72.28325081 C-4.53068464 72.2749813 -6.56589216 72.26011563 -8.60108948 72.24488831 C-10.31147636 72.23520948 -10.31147636 72.23520948 -12.05641651 72.22533512 C-14.84625244 72.08666992 -14.84625244 72.08666992 -17.84625244 71.08666992 C-19.19306338 63.86286582 -19.19306338 63.86286582 -17.53375244 60.14916992 C-15.84625244 58.08666992 -15.84625244 58.08666992 -13.84625244 57.08666992 C-11.90801865 56.98093368 -9.96613619 56.94002528 -8.02505493 56.92845154 C-6.78542496 56.91866272 -5.54579498 56.9088739 -4.26860046 56.89878845 C-2.88742104 56.89288389 -1.50624121 56.88707347 -0.12506104 56.88134766 C1.32349428 56.87177165 2.77204678 56.86176174 4.22059631 56.85134888 C8.16041693 56.82426362 12.10024957 56.8032737 16.04011202 56.78334689 C20.15478499 56.76150963 24.26942075 56.73410991 28.38406372 56.70729065 C36.17903118 56.65733314 43.97401926 56.61240568 51.76902711 56.56926829 C60.64196427 56.51992201 69.5148641 56.46499422 78.38776517 56.40958869 C96.64305799 56.29572171 114.89838601 56.18889296 133.15374756 56.08666992 C129.79646207 53.84847959 126.5711984 52.9446364 122.73138428 51.91040039 C121.593631 51.59694294 121.593631 51.59694294 120.4328928 51.27715302 C117.90110761 50.58096051 115.36728616 49.89248937 112.83343506 49.20385742 C111.04073559 48.71224089 109.24818162 48.22009349 107.45576477 47.72744751 C102.6438084 46.40617444 97.83014794 45.09121591 93.01612473 43.77749634 C85.06370522 41.60576055 77.1143168 39.42293242 69.16461754 37.24126434 C67.17174025 36.69443396 65.178801 36.1478294 63.18580055 35.60144806 C50.41145448 32.09895079 37.64962743 28.55674397 24.90765381 24.93823242 C23.55451302 24.55456551 22.20136378 24.17092843 20.84820557 23.787323 C14.74176369 22.05500447 8.63830225 20.31274685 2.5380249 18.55883789 C0.40870979 17.95325259 -1.72067967 17.34792862 -3.85015869 16.74291992 C-4.78983994 16.46912506 -5.72952118 16.1953302 -6.69767761 15.91323853 C-7.56083084 15.66947479 -8.42398407 15.42571106 -9.31329346 15.17456055 C-10.05015884 14.96271118 -10.78702423 14.75086182 -11.54621887 14.53259277 C-17.06784136 13.46207899 -21.63666911 14.38054103 -26.99371338 15.89306641 Z M-134.84625244 102.08666992 C-134.84625244 130.79666992 -134.84625244 159.50666992 -134.84625244 189.08666992 C-125.27625244 190.40666992 -115.70625244 191.72666992 -105.84625244 193.08666992 C-77.18827714 198.97896391 -49.2392406 207.49303755 -24.57940674 223.6328125 C-23.88371582 224.08293701 -23.1880249 224.53306152 -22.47125244 224.99682617 C-21.86539307 225.4003833 -21.25953369 225.80394043 -20.63531494 226.21972656 C-18.57765444 227.37738835 -18.57765444 227.37738835 -14.84625244 227.08666992 C-12.66386516 225.88084884 -10.6179579 224.63122177 -8.53375244 223.27416992 C13.80728611 209.42651075 38.28708355 200.55341877 63.84124756 194.71166992 C64.82319092 194.48503662 65.80513428 194.25840332 66.8168335 194.02490234 C78.21099882 191.58866194 89.48966778 190.54467989 101.15374756 189.08666992 C101.15374756 160.37666992 101.15374756 131.66666992 101.15374756 102.08666992 C87.92117148 105.38426787 87.92117148 105.38426787 74.75604248 108.91162109 C73.8416893 109.16419174 72.92733612 109.41676239 71.98527527 109.67698669 C69.03439025 110.49262848 66.08428811 111.31106097 63.13421631 112.12963867 C61.05680947 112.70460315 58.97936015 113.27941419 56.90187073 113.8540802 C52.58436908 115.04880342 48.26722868 116.24481985 43.95037842 117.44189453 C38.41391203 118.97714131 32.8767659 120.50991913 27.33938122 122.04185009 C23.06622431 123.22416323 18.79330555 124.40733496 14.52047157 125.59081459 C12.47713169 126.15674919 10.43374485 126.72251428 8.39031029 127.28810692 C5.54975548 128.07455958 2.70949515 128.8620664 -0.13067627 129.64990234 C-0.97372314 129.88314209 -1.81677002 130.11638184 -2.68536377 130.35668945 C-5.76170932 131.21097681 -8.81676176 132.0768397 -11.84625244 133.08666992 C-18.82353839 133.68288221 -24.96064342 132.61311944 -31.63189697 130.67163086 C-32.5537529 130.41470963 -33.47560883 130.15778839 -34.42539978 129.89308167 C-37.44684036 129.04784046 -40.46278862 128.18451553 -43.47906494 127.32104492 C-45.60086973 126.72408262 -47.72301781 126.12833926 -49.8454895 125.53375244 C-55.42215559 123.96832826 -60.99443216 122.38782682 -66.5657959 120.8036499 C-73.29428153 118.89309523 -80.02731113 116.99863518 -86.7601757 115.10358047 C-92.00852391 113.62630191 -97.25600679 112.1462044 -102.50082397 110.65643311 C-104.42862907 110.11071606 -106.35643463 109.56500065 -108.28424072 109.01928711 C-109.1180275 108.78119827 -109.95181427 108.54310944 -110.81086731 108.29780579 C-118.78756482 106.04457221 -126.79042792 104.10062605 -134.84625244 102.08666992 Z M192.15374756 131.08666992 C189.82483544 134.5800381 189.91823613 135.94674857 189.95843506 140.06713867 C189.96488037 141.23051758 189.97132568 142.39389648 189.97796631 143.5925293 C189.99472412 144.8074707 190.01148193 146.02241211 190.02874756 147.27416992 C190.037771 148.50071289 190.04679443 149.72725586 190.05609131 150.9909668 C190.07968651 154.02295077 190.11555789 157.05483465 190.15374756 160.08666992 C195.10374756 160.08666992 200.05374756 160.08666992 205.15374756 160.08666992 C205.20763551 156.00316073 205.24736903 151.92036093 205.27874756 147.83666992 C205.29550537 146.67780273 205.31226318 145.51893555 205.32952881 144.32495117 C205.33597412 143.20991211 205.34241943 142.09487305 205.34906006 140.94604492 C205.35953369 139.91962891 205.37000732 138.89321289 205.38079834 137.83569336 C205.147935 135.01629421 204.73134352 133.41830776 203.15374756 131.08666992 C198.84683536 128.9810684 196.33837806 128.64563546 192.15374756 131.08666992 Z " fill="#393939" transform="translate(262.84625244140625,48.913330078125)"/>
<path d="M0 0 C11.55 0 23.1 0 35 0 C35.94842773 3.14297607 36.89685547 6.28595215 37.87402344 9.52416992 C41.01889369 19.94570787 44.16415169 30.36712876 47.30959702 40.78849316 C49.21537193 47.10267339 51.12101903 53.41689214 53.02636719 59.73120117 C54.86749324 65.83266122 56.70896396 71.93401715 58.55066681 78.03530312 C59.25083772 80.35507874 59.95088753 82.67489092 60.65081024 84.99474144 C65.78208398 102.01058275 65.78208398 102.01058275 71 119 C73.94075121 109.09564898 76.88004597 99.19086686 79.81770039 89.28559685 C81.18323026 84.68141365 82.54918093 80.07735636 83.91625977 75.47363281 C91.37807608 50.34404773 98.73553716 25.18749024 106 0 C117.55 0 129.1 0 141 0 C141 43.56 141 87.12 141 132 C134.07 132 127.14 132 120 132 C120.33 93.39 120.66 54.78 121 15 C115.781875 32.28375 110.56375 49.5675 105.1875 67.375 C102.72253052 75.53935791 102.72253052 75.53935791 100.20776367 83.86865234 C98.7255515 88.77827105 98.7255515 88.77827105 97.24336243 93.68789673 C96.58685957 95.86246693 95.93032258 98.03702682 95.27375793 100.21157837 C94.27511578 103.51912008 93.27658438 106.8266952 92.27807617 110.13427734 C91.84458626 111.56987535 91.84458626 111.56987535 91.40233898 113.03447533 C90.9931068 114.39018607 90.9931068 114.39018607 90.5756073 115.77328491 C90.31439276 116.6361549 90.05317822 117.49902489 89.78404808 118.38804245 C89.23708599 120.21017786 88.69808136 122.03471267 88.16518593 123.86101151 C87.89868925 124.77035824 87.63219257 125.67970497 87.35762024 126.61660767 C87.12036382 127.43508493 86.8831074 128.2535622 86.63866138 129.09684181 C86 131 86 131 85 132 C82.85441173 132.08775605 80.70595579 132.10695219 78.55859375 132.09765625 C77.25341797 132.09443359 75.94824219 132.09121094 74.60351562 132.08789062 C73.2148431 132.07953401 71.82617123 132.07106905 70.4375 132.0625 C69.04492344 132.05748666 67.65234519 132.05292347 66.25976562 132.04882812 C62.83979922 132.03699433 59.4199277 132.01967209 56 132 C51.66548006 119.26536695 47.66166658 106.45714638 43.83203125 93.5625 C43.26512156 91.6615452 42.69795203 89.76066788 42.13053894 87.85986328 C40.65457294 82.91300635 39.18202173 77.96513976 37.71026611 73.01702881 C36.2132011 67.98599877 34.71292819 62.95592564 33.21289062 57.92578125 C30.79189734 49.80631251 28.37254496 41.68635757 25.956604 33.56538391 C24.31244081 28.04113009 22.65620943 22.52069812 21 17 C21 54.95 21 92.9 21 132 C14.07 132 7.14 132 0 132 C0 88.44 0 44.88 0 0 Z " fill="#393939" transform="translate(1060,6)"/>
<path d="M0 0 C11.88 0 23.76 0 36 0 C43 14.875 43 14.875 46.40213013 22.10531616 C49.64423411 28.9953769 52.887544 35.88486671 56.1328125 42.7734375 C63.13247964 57.63345711 70.11645509 72.50040439 77.04541016 87.39355469 C81.65135187 97.2848395 86.32869403 107.13835406 91 117 C91.33 78.39 91.66 39.78 92 0 C98.93 0 105.86 0 113 0 C113 43.56 113 87.12 113 132 C100.46 132 87.92 132 75 132 C73.22625 128.04 71.4525 124.08 69.625 120 C64.19835224 107.89094547 58.75872952 95.78775892 53.3125 83.6875 C52.93867187 82.85693085 52.56484375 82.02636169 52.1796875 81.17062378 C49.45341818 75.1136172 46.72673219 69.05679822 44 63 C41.10355877 56.5661544 38.20729468 50.13222914 35.31137085 43.69815063 C34.15347314 41.12575615 32.99532245 38.55347566 31.8371582 35.98120117 C31.12319721 34.39502513 30.40924802 32.80884376 29.6953125 31.22265625 C29.37939651 30.52119476 29.06348053 29.81973328 28.73799133 29.09701538 C26.47643115 24.07138461 24.2383147 19.03620808 22 14 C21.67 52.94 21.34 91.88 21 132 C14.07 132 7.14 132 0 132 C0 88.44 0 44.88 0 0 Z " fill="#393939" transform="translate(1864,6)"/>
<path d="M0 0 C11.88 0 23.76 0 36 0 C67.44041481 66.54887802 67.44041481 66.54887802 77.40136719 88.10546875 C81.87160619 97.7682257 86.44146755 107.3764315 91 117 C91.33 78.39 91.66 39.78 92 0 C98.93 0 105.86 0 113 0 C113 43.56 113 87.12 113 132 C100.46 132 87.92 132 75 132 C73.411875 128.41125 71.82375 124.8225 70.1875 121.125 C64.2982286 107.85018214 58.31585253 94.61812845 52.32339478 81.38964844 C46.20366615 67.87987953 40.11060172 54.35881031 34.0546875 40.8203125 C30.04822195 31.87493034 26.02223598 22.93830218 22 14 C21.67 52.94 21.34 91.88 21 132 C14.07 132 7.14 132 0 132 C0 88.44 0 44.88 0 0 Z " fill="#393939" transform="translate(1355,6)"/>
<path d="M0 0 C11.88 0 23.76 0 36 0 C54.51242298 38.91633266 72.94046225 77.87100153 91 117 C91.33 78.39 91.66 39.78 92 0 C98.93 0 105.86 0 113 0 C113 43.56 113 87.12 113 132 C100.79 132 88.58 132 76 132 C71.18273984 122.36547968 66.46815231 112.83251475 62.125 103 C61.58102497 101.77681419 61.03657304 100.55384039 60.49169922 99.33105469 C59.61184196 97.35650765 58.73220685 95.3818657 57.85379028 93.40667725 C54.34097725 85.50916802 50.79495889 77.6266216 47.24749756 69.74462891 C46.18389635 67.38089073 45.12139054 65.0166631 44.05908203 62.65234375 C36.754256 46.41264734 29.36878558 30.21132829 22 14 C21.67 52.94 21.34 91.88 21 132 C14.07 132 7.14 132 0 132 C0 88.44 0 44.88 0 0 Z " fill="#393939" transform="translate(921,6)"/>
<path d="M0 0 C9.6603719 8.86139377 14.62934071 20.19733999 17.34765625 32.8828125 C15.81063744 34.41983131 14.22958462 34.20579975 12.09375 34.41796875 C10.81274414 34.54848633 10.81274414 34.54848633 9.50585938 34.68164062 C8.60802734 34.76865234 7.71019531 34.85566406 6.78515625 34.9453125 C5.88345703 35.03619141 4.98175781 35.12707031 4.05273438 35.22070312 C1.81807191 35.44535173 -0.41692214 35.66587019 -2.65234375 35.8828125 C-3.00425781 34.95339844 -3.35617187 34.02398437 -3.71875 33.06640625 C-7.98088787 22.21906017 -12.37250291 16.06043317 -23.02734375 10.92578125 C-35.77692045 5.86010122 -52.11897115 5.82608344 -65.0234375 10.62109375 C-69.07317523 12.56472716 -72.39692816 14.791661 -75.65234375 17.8828125 C-76.46445312 18.65238281 -76.46445312 18.65238281 -77.29296875 19.4375 C-87.71186523 30.43522407 -89.22673614 44.98640592 -88.90234375 59.40234375 C-88.41507276 70.89463007 -85.00065523 83.53450102 -76.65234375 91.8828125 C-65.11421248 101.50891059 -51.50419884 104.91765144 -36.65234375 103.8828125 C-25.72609793 102.33131189 -17.12734726 98.73857633 -9.33984375 90.8203125 C-4.63197694 84.98149835 -4.63197694 84.98149835 -0.65234375 72.8828125 C-11.21234375 72.8828125 -21.77234375 72.8828125 -32.65234375 72.8828125 C-32.65234375 67.6028125 -32.65234375 62.3228125 -32.65234375 56.8828125 C-15.49234375 56.8828125 1.66765625 56.8828125 19.34765625 56.8828125 C19.34765625 78.3328125 19.34765625 99.7828125 19.34765625 121.8828125 C14.72765625 121.8828125 10.10765625 121.8828125 5.34765625 121.8828125 C3.69765625 114.2928125 2.04765625 106.7028125 0.34765625 98.8828125 C-0.64234375 100.3884375 -1.63234375 101.8940625 -2.65234375 103.4453125 C-10.91353251 115.16659836 -21.74701339 120.979816 -35.65234375 123.8828125 C-39.41480895 124.28997306 -43.12016961 124.3605861 -46.90234375 124.3203125 C-48.40124146 124.31004028 -48.40124146 124.31004028 -49.93041992 124.29956055 C-67.24814312 123.92706139 -81.5258182 118.33597847 -93.65234375 105.8828125 C-107.80598577 90.40742959 -110.41646246 70.48195827 -109.78857422 50.31933594 C-108.82530289 33.09093471 -102.67069286 14.56585664 -89.78125 2.5703125 C-65.48358218 -16.68949025 -25.11770355 -20.0497722 0 0 Z " fill="#393939" transform="translate(657.65234375,16.1171875)"/>
<path d="M0 0 C10.90242692 9.16980735 17.32490686 21.01005923 19.41796875 35.06640625 C5.78471135 37.36253381 5.78471135 37.36253381 -0.58203125 37.06640625 C-0.86175781 36.29296875 -1.14148438 35.51953125 -1.4296875 34.72265625 C-5.7831824 23.41196853 -10.44553904 17.58170129 -21.421875 12.29296875 C-34.09534309 7.37397125 -48.99369256 7.1536801 -61.78515625 11.8125 C-72.64643724 16.68187318 -79.05037285 23.6994889 -83.45703125 34.75390625 C-88.82964044 49.32399542 -88.2408658 66.66966541 -82.58203125 81.06640625 C-76.41176854 93.42220459 -68.27977245 99.30563384 -55.4375 103.8203125 C-42.28210922 107.41729315 -27.25854409 105.64365766 -15.3515625 99.14453125 C-5.53153399 93.16146752 -2.15244268 84.77764055 1.41796875 74.06640625 C-9.14203125 74.06640625 -19.70203125 74.06640625 -30.58203125 74.06640625 C-30.58203125 69.11640625 -30.58203125 64.16640625 -30.58203125 59.06640625 C-13.42203125 59.06640625 3.73796875 59.06640625 21.41796875 59.06640625 C21.41796875 80.18640625 21.41796875 101.30640625 21.41796875 123.06640625 C16.79796875 123.06640625 12.17796875 123.06640625 7.41796875 123.06640625 C5.40297046 115.4714127 3.92347404 107.77459332 2.41796875 100.06640625 C2.06605469 100.63488281 1.71414063 101.20335937 1.3515625 101.7890625 C-6.77329126 114.49607922 -16.80191073 121.34541572 -31.58203125 125.06640625 C-48.56684346 128.07709203 -66.84489814 125.54891084 -81.45703125 116.12890625 C-82.84473574 115.12541138 -84.22076336 114.10548056 -85.58203125 113.06640625 C-86.48501953 112.42638672 -86.48501953 112.42638672 -87.40625 111.7734375 C-99.34894903 102.62184116 -105.29651845 86.93376806 -107.30078125 72.44140625 C-109.15808682 50.15373944 -106.75446318 28.17011883 -92.58203125 10.06640625 C-91.81890625 9.01453125 -91.05578125 7.96265625 -90.26953125 6.87890625 C-68.7268622 -15.66574741 -24.89183083 -18.64062975 0 0 Z " fill="#393939" transform="translate(655.58203125,208.93359375)"/>
<path d="M0 0 C76.65783133 0 76.65783133 0 91 12 C98.7937203 19.93011041 99.50254983 30.31665796 99.41723633 40.88525391 C99.09048392 51.33102342 96.61031036 59.50264876 89.23828125 67.15234375 C85.82476928 69.97012938 82.17947844 71.61651524 78 73 C78.79664063 73.58394531 78.79664063 73.58394531 79.609375 74.1796875 C80.31578125 74.73914063 81.0221875 75.29859375 81.75 75.875 C82.44609375 76.40867187 83.1421875 76.94234375 83.859375 77.4921875 C89.61146927 84.23095487 90.69305037 92.77555496 91.5625 101.3125 C92.0962382 109.78059365 92.0962382 109.78059365 96 117 C98.27331799 117.60169446 98.27331799 117.60169446 100.6875 117.3125 C101.89986328 117.24482422 101.89986328 117.24482422 103.13671875 117.17578125 C103.75160156 117.11777344 104.36648438 117.05976563 105 117 C105.13496251 119.10241603 105.23197307 121.2072961 105.3125 123.3125 C105.37050781 124.48425781 105.42851563 125.65601563 105.48828125 126.86328125 C105 130 105 130 102.66796875 131.85546875 C97.0539942 134.2638063 91.70548465 135.19615645 85.7734375 133.28125 C79.85886159 130.53440576 76.58494199 127.09473568 74.3125 120.9375 C72.61177306 114.86608768 72.52450368 108.66433671 72.37817383 102.39624023 C72.19089852 95.68389903 71.72935016 89.05961951 68.375 83.125 C61.66966177 77.12548685 52.36575684 76.86538302 43.75390625 76.90234375 C42.5532251 76.90484131 41.35254395 76.90733887 40.11547852 76.90991211 C38.61299561 76.91901611 37.1105127 76.92812012 35.5625 76.9375 C30.756875 76.958125 25.95125 76.97875 21 77 C20.67 95.15 20.34 113.3 20 132 C13.4 132 6.8 132 0 132 C0 88.44 0 44.88 0 0 Z M20 17 C20 31.52 20 46.04 20 61 C26.3525 61.061875 32.705 61.12375 39.25 61.1875 C41.2290332 61.21481201 43.20806641 61.24212402 45.24707031 61.27026367 C62.66286856 61.60063629 62.66286856 61.60063629 77.6953125 53.79296875 C82.10284783 47.73590672 81.56877664 40.1185951 81 33 C79.84576269 27.86905446 77.11913341 24.22366963 73 21 C61.80020237 15.77052251 48.98345209 16.87466509 36.9375 16.9375 C31.348125 16.958125 25.75875 16.97875 20 17 Z " fill="#393939" transform="translate(836,200)"/>
<path d="M0 0 C6.93 0 13.86 0 21 0 C21.33 20.46 21.66 40.92 22 62 C25.650625 58.37 29.30125 54.74 33.0625 51 C34.19953369 49.87207031 35.33656738 48.74414062 36.50805664 47.58203125 C37.42449951 46.66808594 38.34094238 45.75414062 39.28515625 44.8125 C40.21207275 43.89082031 41.13898926 42.96914062 42.09399414 42.01953125 C46.13890023 37.89421361 49.86551337 33.48520358 53.6282196 29.10424805 C78.8258084 -0.16686561 78.8258084 -0.16686561 90.8203125 -2.02734375 C97.0214677 -2.25672375 102.99669047 -1.5586482 109 0 C108.23213565 4.96438061 106.58499671 6.87300178 102.9375 10.375 C102.43508789 10.86194336 101.93267578 11.34888672 101.41503906 11.85058594 C98.16317612 14.97777682 94.79294255 17.93658609 91.359375 20.859375 C87.25202333 24.58591261 83.40399987 28.57738366 79.50244141 32.51708984 C75.74211316 36.30004227 71.93037411 39.93015797 67.8515625 43.37109375 C64.04852319 46.71680555 60.54301835 50.38316877 57 54 C59.72080284 59.03284657 62.72565904 63.3578138 66.375 67.75 C71.05138634 73.48274213 75.51676768 79.33465845 79.875 85.3125 C84.54303366 91.70965032 89.30184237 98.01743099 94.1875 104.25 C98.62321438 109.92828628 103.04980179 115.61185624 107.375 121.375 C108.08112427 122.29394043 108.08112427 122.29394043 108.80151367 123.23144531 C111.25398244 126.53372411 112 127.74529295 112 132 C91.04083841 133.93721366 91.04083841 133.93721366 84.96484375 130.06640625 C83.13493229 127.50161981 81.63663929 124.9036767 80.20166016 122.10205078 C77.66813888 117.67019011 74.32739285 113.76192442 71.1875 109.75 C69.7901484 107.92402987 68.39559755 106.09591289 67.00390625 104.265625 C66.32602051 103.37552734 65.64813477 102.48542969 64.94970703 101.56835938 C61.67297474 97.25190261 58.42787217 92.91197124 55.18334961 88.57128906 C50.51549757 82.33455377 45.76796922 76.16038501 41 70 C39.42766601 71.32218994 37.86622112 72.65821493 36.33984375 74.03320312 C34 76 34 76 31.00390625 77.95117188 C26.60856834 81.16025274 22.83283145 84.00914909 21.3236084 89.42904663 C20.31937138 96.32020386 20.56709171 103.24618445 20.75 110.1875 C20.7619916 112.3053146 20.76855039 114.4231673 20.76953125 116.54101562 C20.77356925 121.69955695 20.8891329 126.83828355 21 132 C14.07 132 7.14 132 0 132 C0 88.44 0 44.88 0 0 Z " fill="#393939" transform="translate(1100,200)"/>
<path d="M0 0 C6.93 0 13.86 0 21 0 C21 18.48 21 36.96 21 56 C43.11 56 65.22 56 88 56 C88 37.52 88 19.04 88 0 C94.6 0 101.2 0 108 0 C108 43.56 108 87.12 108 132 C101.4 132 94.8 132 88 132 C88 112.2 88 92.4 88 72 C65.89 72 43.78 72 21 72 C21.03961171 91.37196206 21.03961171 91.37196206 21.09008789 110.74389648 C21.09300679 113.16129513 21.09555541 115.57869426 21.09765625 117.99609375 C21.10277222 119.2648938 21.10788818 120.53369385 21.11315918 121.84094238 C21.11328003 123.03868286 21.11340088 124.23642334 21.11352539 125.47045898 C21.115746 126.51636703 21.11796661 127.56227509 21.12025452 128.63987732 C21 131 21 131 20 132 C13.4 132 6.8 132 0 132 C0 88.44 0 44.88 0 0 Z " fill="#393939" transform="translate(1601,6)"/>
<path d="M0 0 C6.93 0 13.86 0 21 0 C21.01981934 2.18818359 21.03963867 4.37636719 21.06005859 6.63085938 C21.1274636 13.92312324 21.20509011 21.21525376 21.28752708 28.50736237 C21.33712227 32.92138125 21.38345004 37.33538034 21.421875 41.74951172 C21.45919933 46.02255949 21.50567494 50.29542494 21.55806351 54.5683136 C21.57636074 56.18505094 21.59155581 57.80182697 21.60334396 59.41862488 C21.25143344 84.69592463 21.25143344 84.69592463 32.2421875 106.46875 C39.66186511 112.93211361 48.82306451 115.53469966 58.55078125 115.24609375 C68.10473825 114.28612678 77.06847927 111.63602369 83.55859375 104.21875 C91.22706106 93.11426322 90.4692553 79.77277627 90.51171875 66.89453125 C90.52858977 64.95967995 90.54674322 63.02483946 90.56611633 61.0900116 C90.61335943 56.03164038 90.64333432 50.97331296 90.66955566 45.91479492 C90.69949164 40.73933263 90.74597679 35.56402088 90.79101562 30.38867188 C90.87675617 20.25917658 90.94269853 10.12969613 91 0 C98.26 0 105.52 0 113 0 C113.04545689 10.1543698 113.08203349 20.30867036 113.10362434 30.46311951 C113.1139947 35.17987901 113.12802819 39.89656439 113.15087891 44.61328125 C113.17285102 49.17799594 113.18461913 53.74264001 113.18975449 58.30740356 C113.19340706 60.03582875 113.20053727 61.76425073 113.21146011 63.49264526 C113.33674645 84.16833405 112.55297509 104.78608754 98 121 C86.01649104 132.78229333 70.32973164 135.37802336 54.19677734 135.30053711 C40.01891389 134.98805801 25.21951276 131.45717584 15 121 C3.51362872 106.77138693 -0.20126494 91.373389 -0.11352539 73.45092773 C-0.11367142 72.64982071 -0.11381744 71.84871368 -0.1139679 71.02333069 C-0.11327855 68.41005621 -0.10553262 65.79685557 -0.09765625 63.18359375 C-0.09578859 61.35799702 -0.09436633 59.53239978 -0.09336853 57.70680237 C-0.08957078 52.92783192 -0.07976422 48.1488924 -0.06866455 43.36993408 C-0.05839116 38.4829551 -0.05385827 33.59597107 -0.04882812 28.70898438 C-0.03813922 19.13930722 -0.02056495 9.56966103 0 0 Z " fill="#393939" transform="translate(1228,200)"/>
<path d="M0 0 C6.93 0 13.86 0 21 0 C21.01981934 2.29477295 21.03963867 4.5895459 21.06005859 6.95385742 C21.12731231 14.58141652 21.20494415 22.20884543 21.28752708 29.83625317 C21.33722779 34.45550286 21.38355754 39.07473254 21.421875 43.6940918 C21.45906236 48.1616391 21.50550729 52.62900733 21.55806351 57.09639931 C21.57643152 58.7909763 21.59160249 60.48559142 21.60334396 62.18022728 C21.45413619 85.91636506 21.45413619 85.91636506 32.03125 106.3984375 C40.45050566 113.24743516 50.33157082 115.88087947 61 115 C69.67187018 113.63562576 78.029195 111.19488774 83.55859375 103.9609375 C84.90862548 101.69352517 85.95000148 99.41993387 87 97 C87.27910721 96.35717072 87.55821442 95.71434143 87.84577942 95.05203247 C91.09339033 86.02634794 90.48062154 76.45019951 90.51171875 66.9921875 C90.52858595 65.05590694 90.5467389 63.11963719 90.56611633 61.18338013 C90.61340089 56.11677429 90.64334918 51.05021232 90.66955566 45.98345947 C90.69947045 40.80138491 90.74596302 35.61946115 90.79101562 30.4375 C90.87680348 20.29172868 90.94272282 10.14597238 91 0 C98.26 0 105.52 0 113 0 C113.04558175 9.56375161 113.08210341 19.12742849 113.10362434 28.69126511 C113.11396466 33.13438778 113.12794023 37.5774309 113.15087891 42.02050781 C113.46089392 103.77454753 113.46089392 103.77454753 98 121 C85.87992103 132.91657018 69.99533218 135.39673502 53.69970703 135.37084961 C41.31288225 135.09391312 30.14955395 132.39746336 20 125 C18.453125 123.948125 18.453125 123.948125 16.875 122.875 C5.42211238 112.69104027 1.5135752 97.63694183 0 83 C-0.32817158 76.53059196 -0.23432704 70.04948518 -0.1953125 63.57421875 C-0.19157371 61.73191991 -0.18873084 59.88961906 -0.18673706 58.0473175 C-0.17916868 53.24205861 -0.15958009 48.43692421 -0.1373291 43.63171387 C-0.11672274 38.71087324 -0.10770399 33.79001213 -0.09765625 28.86914062 C-0.07632651 19.24603077 -0.04120133 9.62304531 0 0 Z " fill="#393939" transform="translate(698,200)"/>
<path d="M0 0 C6.93 0 13.86 0 21 0 C21.0093457 2.50682373 21.01869141 5.01364746 21.02832031 7.59643555 C21.06224052 15.92254137 21.11787214 24.24840326 21.18390274 32.57431316 C21.22324228 37.61734416 21.25549667 42.66020406 21.27099609 47.70336914 C21.28625229 52.57951506 21.32085479 57.4551902 21.36830902 62.33112526 C21.38303102 64.18199358 21.39103568 66.03292915 21.39188385 67.88385582 C21.40479732 81.9470289 22.05621815 95.9462146 32 107 C38.6956198 112.97501498 48.98514597 115.71112842 57.875 115.28515625 C67.31163047 114.01884371 75.42420296 111.57579704 82.25 104.75 C90.70563886 91.46256751 90.31129869 76.4584636 90.4140625 61.23046875 C90.43281518 59.45542034 90.45239149 57.68038047 90.4727478 55.90534973 C90.52364263 51.27775142 90.56349394 46.65012434 90.60089111 42.0223999 C90.64120122 37.28244156 90.69216903 32.54259845 90.7421875 27.80273438 C90.83844047 18.53522994 90.92201648 9.26767619 91 0 C97.93 0 104.86 0 112 0 C112.06819229 10.65863048 112.12305392 21.31711243 112.15543652 31.97591305 C112.1709905 36.92697797 112.1920374 41.87788394 112.22631836 46.82885742 C112.25928279 51.62051992 112.27692986 56.41203102 112.28463173 61.20379829 C112.29010954 63.01793356 112.30080277 64.832062 112.31719017 66.64613152 C112.44111514 80.95358776 112.42046849 96.70305899 105.3125 109.5625 C104.96509766 110.22032471 104.61769531 110.87814941 104.25976562 111.5559082 C101.30374092 116.92135935 97.86707329 121.22729822 93 125 C92.39800781 125.47566406 91.79601563 125.95132813 91.17578125 126.44140625 C77.59197767 135.98139409 57.89057225 136.79380626 41.9296875 134.50390625 C27.53703559 131.70445637 16.43348982 124.96422376 8.125 112.6875 C2.04034269 102.46986791 -0.16559554 91.88943251 -0.11352539 80.14892578 C-0.11367142 79.27998184 -0.11381744 78.4110379 -0.1139679 77.51576233 C-0.11327421 74.65891985 -0.10550735 71.80214351 -0.09765625 68.9453125 C-0.09579014 66.95848628 -0.09436715 64.97165961 -0.09336853 62.98483276 C-0.08955857 57.76687337 -0.0797413 52.54894201 -0.06866455 47.33099365 C-0.05841769 42.00191629 -0.0538639 36.67283438 -0.04882812 31.34375 C-0.03811764 20.89581906 -0.02053318 10.44791625 0 0 Z " fill="#393939" transform="translate(961,200)"/>
<path d="M0 0 C10.89 0 21.78 0 33 0 C37.49903535 11.24758836 37.49903535 11.24758836 38.96020508 15.59350586 C39.29242569 16.57667786 39.6246463 17.55984985 39.9669342 18.57281494 C40.31429123 19.60968445 40.66164825 20.64655396 41.01953125 21.71484375 C41.3951268 22.82768738 41.77072235 23.94053101 42.15769958 25.08709717 C42.96149253 27.46877773 43.76416155 29.85083786 44.5657959 32.23324585 C46.68421852 38.52758288 48.81177711 44.8188227 50.94140625 51.109375 C51.1553793 51.74160666 51.36935234 52.37383831 51.58980942 53.0252285 C56.30484275 66.95121625 61.13513543 80.83582508 66.01489258 94.70483398 C69.04023775 103.31178599 72.0165955 111.93372201 74.921875 120.58203125 C75.22973938 121.49240646 75.53760376 122.40278168 75.85479736 123.34074402 C76.13571228 124.18196304 76.4166272 125.02318207 76.70605469 125.88989258 C76.95635437 126.63628494 77.20665405 127.38267731 77.46453857 128.15168762 C78 130 78 130 78 132 C70.74 132 63.48 132 56 132 C54.28540503 126.94806838 52.57455959 121.89517651 50.87304688 116.83886719 C50.29318362 115.11938455 49.71116771 113.40062629 49.12695312 111.68261719 C48.28728465 109.21216402 47.45540815 106.7392039 46.625 104.265625 C46.36251465 103.49881409 46.1000293 102.73200317 45.82958984 101.94195557 C44.65479085 98.41903595 44 95.7525475 44 92 C26.18 92 8.36 92 -10 92 C-10.66 94.97 -11.32 97.94 -12 101 C-12.7591316 103.56405196 -13.55316914 106.11804391 -14.3828125 108.66015625 C-14.60194305 109.33549911 -14.82107361 110.01084198 -15.04684448 110.70664978 C-15.7356712 112.82655774 -16.43021393 114.94453869 -17.125 117.0625 C-17.5980389 118.51484938 -18.07069826 119.96732244 -18.54296875 121.41992188 C-19.69024681 124.9483051 -20.84526662 128.47401525 -22 132 C-29.26 132 -36.52 132 -44 132 C-42.11735943 124.92437062 -40.08193882 117.95402796 -37.75708008 111.01245117 C-37.44762451 110.08057983 -37.13816895 109.1487085 -36.81933594 108.18859863 C-35.80572848 105.13904948 -34.78779042 102.09096753 -33.76953125 99.04296875 C-33.05294116 96.89184794 -32.33652904 94.74066783 -31.62028503 92.58943176 C-30.12014386 88.08606806 -28.61784917 83.58343016 -27.11401367 79.08129883 C-25.20843537 73.37587898 -23.30818824 67.66870105 -21.4096117 61.96094799 C-19.93003062 57.51488872 -18.4475268 53.06980799 -16.9642086 48.62499428 C-16.2637857 46.52503943 -15.56421988 44.42479847 -14.86561012 42.32423973 C-10.14107912 28.1257153 -5.16448885 14.04512281 0 0 Z M16 11 C15.71264984 11.8996347 15.71264984 11.8996347 15.41949463 12.81744385 C13.40849532 19.11295957 11.3964369 25.40813611 9.38378906 31.703125 C8.63482458 34.04613877 7.8861217 36.38923617 7.13769531 38.73242188 C6.05604286 42.11871515 4.9734205 45.50469708 3.890625 48.890625 C3.56128967 49.92237854 3.23195435 50.95413208 2.89263916 52.01715088 C0.91210008 58.20656921 -1.13321986 64.36746382 -3.26177979 70.50775146 C-4.14200459 73.04619696 -4.14200459 73.04619696 -4 76 C9.86 76 23.72 76 38 76 C35.67759444 67.40787623 35.67759444 67.40787623 33.13061523 58.90185547 C32.79694443 57.84481415 32.46327362 56.78777283 32.11949158 55.69869995 C31.76939529 54.59930084 31.41929901 53.49990173 31.05859375 52.3671875 C30.69024918 51.20873322 30.3219046 50.05027893 29.94239807 48.85671997 C29.16972563 46.43107102 28.39569563 44.00585412 27.62036133 41.58105469 C26.43052322 37.85314087 25.25138669 34.12194028 24.07226562 30.390625 C23.31836552 28.02843599 22.56383126 25.66644926 21.80859375 23.3046875 C21.45647324 22.18504608 21.10435272 21.06540466 20.74156189 19.91183472 C20.41104324 18.886315 20.0805246 17.86079529 19.73999023 16.80419922 C19.4514769 15.89805878 19.16296356 14.99191833 18.8657074 14.05831909 C18.18838542 11.82290519 18.18838542 11.82290519 16 11 Z " fill="#393939" transform="translate(828,6)"/>
<path d="M0 0 C1.39120471 0.00015906 2.78241534 0.00585033 4.17358398 0.01586914 C4.90463852 0.01728409 5.63569305 0.01869904 6.38890076 0.02015686 C8.73253406 0.02577131 11.07607313 0.03832617 13.41967773 0.05102539 C15.00496282 0.05603853 16.59024939 0.06060176 18.17553711 0.06469727 C22.06945383 0.07574542 25.96329979 0.09301967 29.85717773 0.11352539 C36.76825937 19.01359922 43.26134873 38.0486872 49.70623779 57.11175537 C53.84920827 69.36414872 58.00791774 81.60960052 62.28295898 93.81665039 C62.63090012 94.81023056 62.97884125 95.80381073 63.33732605 96.82749939 C64.9726273 101.49158275 66.61404012 106.15343669 68.26220703 110.81298828 C68.84596814 112.47175372 69.42970954 114.1305261 70.01342773 115.78930664 C70.27404495 116.5202655 70.53466217 117.25122437 70.80317688 118.0043335 C71.16731941 119.04125336 71.16731941 119.04125336 71.53881836 120.09912109 C71.74655884 120.68538773 71.95429932 121.27165436 72.16833496 121.87568665 C73.20635377 125.24789117 74.00142741 128.69052411 74.85717773 132.11352539 C67.59717773 132.11352539 60.33717773 132.11352539 52.85717773 132.11352539 C48.5238444 119.11352539 44.19051107 106.11352539 39.85717773 93.11352539 C22.36717773 92.78352539 4.87717773 92.45352539 -13.14282227 92.11352539 C-14.13282227 96.07352539 -15.12282227 100.03352539 -16.14282227 104.11352539 C-16.86711156 106.55480014 -17.6164352 108.98897383 -18.40454102 111.41040039 C-18.80092773 112.63500977 -19.19731445 113.85961914 -19.60571289 115.12133789 C-20.21189453 116.9737207 -20.21189453 116.9737207 -20.83032227 118.86352539 C-21.25061294 120.15767651 -21.67053678 121.45194682 -22.09008789 122.74633789 C-23.1040801 125.86990009 -24.12294243 128.99188062 -25.14282227 132.11352539 C-32.40282227 132.11352539 -39.66282227 132.11352539 -47.14282227 132.11352539 C-44.89318106 121.99013999 -44.89318106 121.99013999 -43.52075195 117.99853516 C-43.21072235 117.08869873 -42.90069275 116.1788623 -42.58126831 115.24145508 C-42.07806564 113.78787598 -42.07806564 113.78787598 -41.56469727 112.30493164 C-41.20513947 111.25265381 -40.84558167 110.20037598 -40.47512817 109.11621094 C-39.694132 106.83152181 -38.91106748 104.5475389 -38.12615967 102.26419067 C-35.99403159 96.06116145 -33.87692148 89.85300946 -31.76000977 83.64477539 C-31.53715931 82.99173494 -31.31430885 82.3386945 -31.08470535 81.66586494 C-27.34944067 70.71666705 -23.67362823 59.74833543 -20.02563477 48.76977539 C-19.77354248 48.01139814 -19.5214502 47.2530209 -19.26171875 46.47166252 C-16.77252408 38.98249522 -14.28734462 31.49201029 -11.80846596 23.99942207 C-10.8865519 21.21479184 -9.96232449 18.43093316 -9.03756332 15.64724731 C-8.60537478 14.34428713 -8.17430121 13.04095654 -7.74438858 11.73724365 C-7.15706356 9.95626637 -6.56582665 8.17658053 -5.97436523 6.39697266 C-5.6430661 5.39561783 -5.31176697 4.394263 -4.97042847 3.36256409 C-3.78335421 0.13666276 -3.78335421 0.13666276 0 0 Z M12.85717773 11.11352539 C10.65016474 17.85331519 8.44496726 24.59369712 6.2409668 31.33447266 C5.4926762 33.62236633 4.74398658 35.91012955 3.99487305 38.19775391 C-3.44652834 56.81632054 -3.44652834 56.81632054 -7.14282227 76.11352539 C6.71717773 76.11352539 20.57717773 76.11352539 34.85717773 76.11352539 C32.55214398 67.56611629 32.55214398 67.56611629 29.98779297 59.12304688 C29.65412216 58.089254 29.32045135 57.05546112 28.97666931 55.99034119 C28.62657303 54.91595291 28.27647675 53.84156464 27.91577148 52.73461914 C27.36325462 51.03378929 27.36325462 51.03378929 26.79957581 49.29859924 C26.02699204 46.92418683 25.25296116 44.55024482 24.47753906 42.17675781 C23.28849059 38.53206042 22.10885257 34.88439858 20.92944336 31.23657227 C20.17545909 28.92323438 19.42092175 26.61007667 18.66577148 24.29711914 C18.31365097 23.20451279 17.96153046 22.11190643 17.59873962 20.9861908 C17.26822098 19.98076736 16.93770233 18.97534393 16.59716797 17.93945312 C16.30865463 17.05329819 16.0201413 16.16714325 15.72288513 15.25413513 C14.95256102 12.94862948 14.95256102 12.94862948 12.85717773 11.11352539 Z " fill="#393939" transform="translate(1265.142822265625,5.886474609375)"/>
<path d="M0 0 C1.39120471 0.00015906 2.78241534 0.00585033 4.17358398 0.01586914 C4.90463852 0.01728409 5.63569305 0.01869904 6.38890076 0.02015686 C8.73253406 0.02577131 11.07607313 0.03832617 13.41967773 0.05102539 C15.00496282 0.05603853 16.59024939 0.06060176 18.17553711 0.06469727 C22.06945383 0.07574542 25.96329979 0.09301967 29.85717773 0.11352539 C37.50099472 21.65684463 44.97509613 43.25300507 52.30413818 64.90545654 C56.24696237 76.55154239 60.21346217 88.18796283 64.27514648 99.79321289 C64.62736267 100.79961823 64.97957886 101.80602356 65.34246826 102.84292603 C67.0186646 107.62734471 68.70034241 112.40977693 70.38793945 117.19018555 C70.9831658 118.88337812 71.57838129 120.5765745 72.17358398 122.26977539 C72.58473701 123.42689529 72.58473701 123.42689529 73.00419617 124.60739136 C74.85717773 129.88772728 74.85717773 129.88772728 74.85717773 132.11352539 C67.59717773 132.11352539 60.33717773 132.11352539 52.85717773 132.11352539 C48.5238444 119.11352539 44.19051107 106.11352539 39.85717773 93.11352539 C22.36717773 92.78352539 4.87717773 92.45352539 -13.14282227 92.11352539 C-14.13282227 96.07352539 -15.12282227 100.03352539 -16.14282227 104.11352539 C-16.85224348 106.47128995 -17.58880875 108.82132108 -18.36938477 111.15649414 C-18.95719727 112.91896484 -18.95719727 112.91896484 -19.55688477 114.71704102 C-19.95649414 115.89975586 -20.35610352 117.0824707 -20.76782227 118.30102539 C-21.17516602 119.5262793 -21.58250977 120.7515332 -22.00219727 122.01391602 C-25.00906992 130.97977304 -25.00906992 130.97977304 -26.14282227 132.11352539 C-27.70454971 132.20038142 -29.27011571 132.22054759 -30.83422852 132.21118164 C-31.7784668 132.20795898 -32.72270508 132.20473633 -33.69555664 132.20141602 C-34.6887793 132.19303711 -35.68200195 132.1846582 -36.70532227 132.17602539 C-37.70241211 132.17151367 -38.69950195 132.16700195 -39.72680664 132.16235352 C-42.19887365 132.15052544 -44.67080892 132.13320497 -47.14282227 132.11352539 C-45.87737441 125.8437043 -44.1875573 119.84921235 -42.12109375 113.79956055 C-41.82314407 112.91502701 -41.5251944 112.03049347 -41.21821594 111.11915588 C-40.23781482 108.21213791 -39.25088411 105.30738216 -38.26391602 102.40258789 C-37.57046572 100.35035194 -36.87744491 98.29797082 -36.18482971 96.24545288 C-34.3593221 90.83923461 -32.52835102 85.4348828 -30.69610596 80.03094482 C-28.50492393 73.56527379 -26.32001413 67.09748154 -24.13418007 60.63000107 C-22.37938904 55.43820538 -20.62377244 50.24669346 -18.86581421 45.05596924 C-15.93764463 36.40714928 -13.013589 27.75734458 -10.14331055 19.08911133 C-9.92495702 18.43021849 -9.70660349 17.77132565 -9.48163319 17.09246635 C-8.51437332 14.17149437 -7.55105373 11.24931049 -6.59361267 8.32510376 C-6.27606522 7.36244598 -5.95851776 6.39978821 -5.63134766 5.40795898 C-5.23055748 4.18331436 -5.23055748 4.18331436 -4.82167053 2.93392944 C-3.679645 -0.12853386 -3.50436581 0.12658511 0 0 Z M12.85717773 11.11352539 C10.53788547 18.10965026 8.22502547 25.10786776 5.92007637 32.10873222 C4.84929326 35.36038201 3.77641001 38.61130534 2.69848633 41.8605957 C1.45581212 45.60683296 0.22270417 49.35618584 -1.01000977 53.10571289 C-1.39341522 54.2571579 -1.77682068 55.40860291 -2.17184448 56.59494019 C-2.53206696 57.69532623 -2.89228943 58.79571228 -3.26342773 59.92944336 C-3.736418 61.36173782 -3.736418 61.36173782 -4.21896362 62.82296753 C-5.4451182 67.19022935 -6.25321494 71.66548878 -7.14282227 76.11352539 C6.71717773 76.11352539 20.57717773 76.11352539 34.85717773 76.11352539 C32.55214398 67.56611629 32.55214398 67.56611629 29.98779297 59.12304688 C29.65412216 58.089254 29.32045135 57.05546112 28.97666931 55.99034119 C28.62657303 54.91595291 28.27647675 53.84156464 27.91577148 52.73461914 C27.36325462 51.03378929 27.36325462 51.03378929 26.79957581 49.29859924 C26.02699204 46.92418683 25.25296116 44.55024482 24.47753906 42.17675781 C23.28849059 38.53206042 22.10885257 34.88439858 20.92944336 31.23657227 C20.17545909 28.92323438 19.42092175 26.61007667 18.66577148 24.29711914 C18.31365097 23.20451279 17.96153046 22.11190643 17.59873962 20.9861908 C17.26822098 19.98076736 16.93770233 18.97534393 16.59716797 17.93945312 C16.30865463 17.05329819 16.0201413 16.16714325 15.72288513 15.25413513 C14.95256102 12.94862948 14.95256102 12.94862948 12.85717773 11.11352539 Z " fill="#393939" transform="translate(1774.142822265625,5.886474609375)"/>
<path d="M0 0 C7.59 0 15.18 0 23 0 C27.04613183 8.04713693 31.08889341 16.09594227 35.12569427 24.14776421 C37.00013701 27.88619819 38.87606556 31.62387113 40.75537109 35.35986328 C42.56785582 38.96315313 44.37646164 42.56836494 46.18235779 46.17496109 C46.87313618 47.55281333 47.56532583 48.92995894 48.25892639 50.30639267 C49.22775957 52.22960921 50.19161195 54.15524326 51.15429688 56.08154297 C51.70500854 57.17852509 52.25572021 58.2755072 52.82312012 59.4057312 C54 62 54 62 54 64 C54.66 64 55.32 64 56 64 C56.27707291 63.12053711 56.55414581 62.24107422 56.83961487 61.33496094 C57.90089137 58.28483941 59.11811394 55.52237891 60.56616211 52.640625 C61.07686752 51.61936523 61.58757294 50.59810547 62.11375427 49.54589844 C62.6627388 48.45825195 63.21172333 47.37060547 63.77734375 46.25 C64.344496 45.11852539 64.91164825 43.98705078 65.49598694 42.82128906 C66.99948363 39.82357309 68.5064147 36.82763619 70.01507568 33.83251953 C71.54352928 30.79604161 73.067488 27.75731006 74.59179688 24.71875 C77.27970491 19.36255791 79.97110829 14.00813919 82.66563416 8.65527344 C84.11447077 5.77221299 85.55700554 2.88598892 87 0 C94.59 0 102.18 0 110 0 C104.72893579 10.62485812 99.33380361 21.16180173 93.75 31.625 C93.00598559 33.02252286 92.26200827 34.42006547 91.51806641 35.81762695 C86.30933006 45.5924358 81.04036479 55.33338109 75.7109375 65.04296875 C75.28659424 65.84694092 74.86225098 66.65091309 74.42504883 67.47924805 C73 70 73 70 71.14331055 72.60864258 C63.89912092 83.63192897 64.99558209 95.55868029 65.0625 108.3125 C65.04937107 110.6139524 65.03312131 112.91538921 65.01367188 115.21679688 C64.97311014 120.81166705 64.97485633 126.40505507 65 132 C58.4 132 51.8 132 45 132 C45.12503906 128.90625 45.25007812 125.8125 45.37890625 122.625 C46.09027588 96.27049668 43.90486409 77.63806631 29.31005859 55.59667969 C25.85851629 50.326714 23.01166249 44.73686461 20.11312866 39.1506958 C18.61376107 36.27435797 17.07557117 33.41912518 15.5390625 30.5625 C14.95415039 29.47453125 14.36923828 28.3865625 13.76660156 27.265625 C11.99037159 23.98220155 10.19792744 20.70822775 8.3984375 17.4375 C7.83487549 16.41221191 7.27131348 15.38692383 6.69067383 14.33056641 C5.63198902 12.40877329 4.56952767 10.48905411 3.50268555 8.57177734 C2.80719604 7.31034912 2.80719604 7.31034912 2.09765625 6.0234375 C1.48676147 4.92394775 1.48676147 4.92394775 0.86352539 3.80224609 C0 2 0 2 0 0 Z " fill="#393939" transform="translate(682,6)"/>
<path d="M0 0 C33.33 0 66.66 0 101 0 C101 5.61 101 11.22 101 17 C87.47 17 73.94 17 60 17 C60 54.95 60 92.9 60 132 C53.4 132 46.8 132 40 132 C40 94.05 40 56.1 40 17 C26.8 17 13.6 17 0 17 C0 11.39 0 5.78 0 0 Z " fill="#393939" transform="translate(1483,6)"/>
<path d="M0 0 C6.93 0 13.86 0 21 0 C21 37.62 21 75.24 21 114 C43.44 114 65.88 114 89 114 C89 119.94 89 125.88 89 132 C59.63 132 30.26 132 0 132 C0 88.44 0 44.88 0 0 Z " fill="#393939" transform="translate(1367,200)"/>
</svg>
